<svg width="138" height="25" viewBox="0 0 138 25" fill="none" xmlns="http://www.w3.org/2000/svg">
<path d="M0.320557 0.407799H9.50796C11.3038 0.407799 12.8644 0.685199 14.1898 1.24C15.5153 1.7948 16.5361 2.61591 17.2523 3.70332C17.9792 4.79073 18.3426 6.13335 18.3426 7.73117C18.3426 9.11818 18.1342 10.2777 17.7173 11.2098C17.3004 12.1418 16.7179 12.913 15.9696 13.5233C15.232 14.1225 14.3716 14.6163 13.3882 15.0046L11.5443 16.0865L5.94844 16.0698V11.5759H9.50796C10.2241 11.5759 10.8174 11.4428 11.2877 11.1765C11.758 10.9102 12.1108 10.5329 12.346 10.0447C12.5918 9.54537 12.7147 8.95173 12.7147 8.26378C12.7147 7.56473 12.5918 6.96555 12.346 6.46623C12.1001 5.96691 11.7367 5.58409 11.2556 5.31779C10.7853 5.05148 10.2028 4.91833 9.50796 4.91833H5.94844V24.6415H0.320557V0.407799ZM13.0995 24.6415L8.99888 16.0782L11.5443 16.0865L13.3882 15.0046L13.8331 14.8215L14.2339 14.626L19.1283 24.3919V24.6415H13.0995Z" fill="#BB0505"/>
<path d="M31.1431 7.10407L25.9427 24.6415H19.8979L28.476 0.407799H31.2819L31.1431 7.10407ZM36.3486 24.6415L31.1431 7.10407L31.2819 0.407799H31.33H33.7832L42.4094 24.6415H36.3486ZM33.667 15.608L35.0018 20.1019L27.2855 20.1143L28.6163 15.5955L33.667 15.608Z" fill="#BB0505"/>
<path d="M50.1057 0.407799V24.6415H44.4938V0.407799H50.1057Z" fill="#BB0505"/>
<path d="M69.4906 20.1476V24.6415H59.6939V20.1435L69.4906 20.1476ZM59.6939 0.407799V24.6415H54.0661V0.407799H59.6939Z" fill="#BB0505"/>
<path d="M77.6386 15.6294L80.8105 0.407799H83.5844L83.1261 10.7341L80.1371 24.6415H77.8443L77.6386 15.6294ZM74.9261 0.407799L77.6386 15.6294L77.8443 24.6415H74.3008L69.3463 0.407799H74.9261ZM88.8708 15.6294L91.5372 0.407799H97.1009L92.1465 24.6415H88.619L88.8708 15.6294ZM85.5886 0.407799L88.8708 15.6294L88.619 24.6415H86.3262L83.1261 10.7341L83.5844 0.407799H85.5886Z" fill="#240303"/>
<path d="M107.969 7.05183L102.809 24.6415H96.7642L105.342 0.407799H109.174L107.969 7.05183ZM113.215 24.6415L107.969 7.05183L109.174 0.407799H110.65L119.276 24.6415H113.215ZM110.525 15.6204L111.86 20.1059H104.14L105.455 15.6245L110.525 15.6204Z" fill="#240303"/>
<path d="M122.819 0.407799L127.116 10.9268L131.429 0.407799H137.49L129.986 15.9367V24.6415H124.262V15.9367L116.742 0.407799H122.819Z" fill="#240303"/>
</svg>
