<?xml version="1.0" encoding="UTF-8"?>
<!DOCTYPE svg PUBLIC "-//W3C//DTD SVG 1.1//EN" "http://www.w3.org/Graphics/SVG/1.1/DTD/svg11.dtd">
<!-- Creator: CorelDRAW X7 -->
<svg xmlns="http://www.w3.org/2000/svg" xml:space="preserve" width="190mm" height="96.0115mm" version="1.1" style="shape-rendering:geometricPrecision; text-rendering:geometricPrecision; image-rendering:optimizeQuality; fill-rule:evenodd; clip-rule:evenodd" viewBox="0 0 19000 9601" xmlns:xlink="http://www.w3.org/1999/xlink">
 <defs>
  <style type="text/css">
   <![CDATA[
    .fil0 {fill:#2B2A29;fill-rule:nonzero}
    .fil1 {fill:#EF7F1A;fill-rule:nonzero}
   ]]>
  </style>
 </defs>
 <g id="Слой_x0020_1">
  <metadata id="CorelCorpID_0Corel-Layer"/>
  <path class="fil0" d="M2607 0l1367 4396 -1106 0 -271 -910 -1417 0 -278 910 -902 0 1407 -4396 1200 0zm-1181 2676l929 0 -460 -1540 -469 1540z"/>
  <polygon id="1" class="fil0" points="5087,0 5087,4396 4059,4396 4059,0 "/>
  <path id="2" class="fil0" d="M6613 2663l0 1733 -1034 0 0 -4396 1932 0c356,0 642,42 858,124 216,84 395,235 537,457 141,222 212,469 212,740 0,530 -255,910 -765,1141l811 1934 -1135 0 -676 -1733 -740 0zm0 -1872l0 1120 633 0c206,0 357,-14 450,-44 95,-28 177,-93 251,-192 73,-100 110,-214 110,-344 0,-122 -37,-231 -110,-328 -74,-96 -153,-156 -239,-178 -86,-23 -248,-34 -484,-34l-611 0z"/>
  <path id="3" class="fil1" d="M3981 6778l-1081 68c-15,-624 -256,-936 -724,-936 -537,0 -805,478 -805,1435 0,552 72,927 218,1124 147,196 350,295 611,295 425,0 685,-277 779,-830l1002 61c-65,524 -261,924 -587,1196 -327,274 -728,410 -1201,410 -582,0 -1054,-201 -1417,-602 -364,-401 -545,-955 -545,-1664 0,-662 175,-1205 527,-1628 351,-423 833,-634 1441,-634 1055,0 1649,568 1782,1705z"/>
  <path id="4" class="fil1" d="M6309 5139l1367 4396 -1106 0 -271 -909 -1417 0 -278 909 -902 0 1407 -4396 1200 0zm-1181 2676l929 0 -460 -1540 -469 1540z"/>
  <path id="5" class="fil1" d="M8796 7802l0 1733 -1035 0 0 -4396 1932 0c356,0 643,42 858,124 217,84 396,235 537,457 142,222 212,469 212,741 0,529 -254,909 -764,1140l811 1934 -1135 0 -677 -1733 -739 0zm0 -1872l0 1121 633 0c206,0 357,-15 450,-44 94,-29 177,-94 250,-193 74,-100 110,-214 110,-343 0,-122 -36,-232 -110,-329 -73,-95 -152,-156 -238,-178 -87,-23 -248,-34 -484,-34l-611 0z"/>
  <path id="6" class="fil1" d="M15038 7182l0 2353 -468 0c-34,-165 -84,-334 -149,-505 -313,381 -713,571 -1198,571 -573,0 -1019,-205 -1338,-615 -320,-410 -479,-939 -479,-1589 0,-700 170,-1261 511,-1687 339,-425 802,-637 1385,-637 490,0 884,138 1185,411 300,275 484,639 551,1095l-976 129c-79,-532 -333,-798 -759,-798 -280,0 -491,127 -634,379 -144,253 -215,613 -215,1082 0,452 78,797 233,1035 155,238 376,358 661,358 186,0 351,-60 497,-180 145,-121 217,-313 217,-578l-830 0 0 -824 1806 0z"/>
  <path id="7" class="fil1" d="M17108 9601c-590,0 -1049,-222 -1373,-666 -324,-444 -485,-982 -485,-1612 0,-642 164,-1177 492,-1606 328,-429 795,-644 1403,-644 613,0 1075,229 1387,687 312,458 468,983 468,1573 0,637 -160,1174 -482,1611 -322,439 -791,657 -1410,657zm30 -3691c-538,0 -807,475 -807,1425 0,952 269,1429 807,1429 521,0 781,-476 781,-1426 0,-952 -260,-1428 -781,-1428z"/>
 </g>
</svg>