<svg width="166" height="25" viewBox="0 0 166 25" fill="none" xmlns="http://www.w3.org/2000/svg">
<path d="M13.1884 17.6802C13.1884 17.326 13.1363 17.0083 13.0321 16.727C12.9279 16.4354 12.7352 16.1645 12.454 15.9145C12.1727 15.6645 11.7665 15.4145 11.2352 15.1645C10.7144 14.9041 10.0269 14.6333 9.17273 14.352C8.17273 14.0187 7.20919 13.6437 6.2821 13.227C5.35502 12.7999 4.5269 12.3052 3.79773 11.7427C3.06856 11.1697 2.49044 10.5031 2.06335 9.74265C1.63627 8.97182 1.42273 8.07599 1.42273 7.05515C1.42273 6.07599 1.64148 5.19578 2.07898 4.41453C2.51648 3.62286 3.12585 2.95099 3.9071 2.3989C4.69877 1.8364 5.62585 1.40932 6.68835 1.11765C7.75085 0.81557 8.91231 0.664528 10.1727 0.664528C11.8394 0.664528 13.3081 0.956195 14.579 1.53953C15.8602 2.11244 16.8602 2.93015 17.579 3.99265C18.3081 5.04474 18.6727 6.28953 18.6727 7.72703H13.2196C13.2196 7.15411 13.0998 6.6489 12.8602 6.2114C12.6311 5.7739 12.2821 5.43015 11.8134 5.18015C11.3446 4.93015 10.7561 4.80515 10.0477 4.80515C9.36023 4.80515 8.7821 4.90932 8.31335 5.11765C7.8446 5.32599 7.49044 5.60724 7.25085 5.9614C7.01127 6.30515 6.89148 6.68536 6.89148 7.10203C6.89148 7.44578 6.98523 7.75828 7.17273 8.03953C7.37065 8.31036 7.64669 8.56557 8.00085 8.80515C8.36544 9.04474 8.80294 9.2739 9.31335 9.49265C9.83419 9.7114 10.4175 9.92494 11.0634 10.1333C12.2717 10.5187 13.3446 10.951 14.2821 11.4302C15.23 11.8989 16.0269 12.4354 16.6727 13.0395C17.329 13.6333 17.8238 14.3104 18.1571 15.0708C18.5009 15.8312 18.6727 16.6906 18.6727 17.6489C18.6727 18.6697 18.4748 19.576 18.079 20.3677C17.6831 21.1593 17.1154 21.8312 16.3759 22.3833C15.6363 22.9249 14.7509 23.3364 13.7196 23.6177C12.6884 23.8989 11.5373 24.0395 10.2665 24.0395C9.09981 24.0395 7.94877 23.8937 6.81335 23.602C5.68835 23.2999 4.66752 22.8416 3.75085 22.227C2.83419 21.602 2.09981 20.8052 1.54773 19.8364C1.00606 18.8572 0.735229 17.6958 0.735229 16.352H6.23523C6.23523 17.0187 6.32377 17.5812 6.50085 18.0395C6.67794 18.4979 6.93835 18.8677 7.2821 19.1489C7.62585 19.4197 8.04773 19.6177 8.54773 19.7427C9.04773 19.8572 9.62065 19.9145 10.2665 19.9145C10.9644 19.9145 11.5269 19.8156 11.954 19.6177C12.3811 19.4093 12.6936 19.1385 12.8915 18.8052C13.0894 18.4614 13.1884 18.0864 13.1884 17.6802Z" fill="#10A9FF"/>
<path d="M37.1571 19.5083V23.727L26.9844 23.7266V19.5078L37.1571 19.5083ZM26.9852 0.977028L26.9844 23.7266L21.5009 23.727V0.977028H26.9852ZM35.5946 10.0083V14.0864L26.9805 14.0859L26.9883 10L35.5946 10.0083ZM37.204 0.977028V5.2114L26.9876 5.21219L26.9852 0.977028H37.204Z" fill="#10A9FF"/>
<path d="M48.5654 7.24245L43.5009 23.727H37.6102L45.9696 0.977028H48.704L48.5654 7.24245ZM53.6415 23.727L48.5654 7.24245L48.704 0.977028H51.1415L59.5477 23.727H53.6415ZM51.0352 15.2461L52.332 19.4805L44.8047 19.4688L46.1055 15.2383L51.0352 15.2461Z" fill="#10A9FF"/>
<path d="M74.1571 16.0239H79.6259C79.5529 17.6072 79.1259 19.0031 78.3446 20.2114C77.5634 21.4197 76.48 22.3624 75.0946 23.0395C73.7196 23.7062 72.0946 24.0395 70.2196 24.0395C68.6988 24.0395 67.3394 23.7843 66.1415 23.2739C64.954 22.7635 63.9436 22.0291 63.1102 21.0708C62.2873 20.1124 61.6571 18.951 61.2196 17.5864C60.7925 16.2218 60.579 14.6854 60.579 12.977V11.7427C60.579 10.0343 60.8029 8.49786 61.2509 7.13328C61.7092 5.75828 62.355 4.59161 63.1884 3.63328C64.0321 2.66453 65.0425 1.92494 66.2196 1.41453C67.3967 0.904111 68.704 0.648903 70.1415 0.648903C72.1206 0.648903 73.7925 1.00307 75.1571 1.7114C76.5217 2.41974 77.579 3.39369 78.329 4.63328C79.079 5.86244 79.5217 7.26349 79.6571 8.8364H74.1884C74.1675 7.98224 74.0217 7.26869 73.7509 6.69578C73.48 6.11244 73.0529 5.67494 72.4696 5.38328C71.8863 5.09161 71.1102 4.94578 70.1415 4.94578C69.4644 4.94578 68.8759 5.07078 68.3759 5.32078C67.8759 5.57078 67.4592 5.96661 67.1259 6.50828C66.7925 7.04994 66.5425 7.75307 66.3759 8.61765C66.2196 9.47182 66.1415 10.5031 66.1415 11.7114V12.977C66.1415 14.1854 66.2144 15.2166 66.3602 16.0708C66.5061 16.9249 66.7404 17.6229 67.0634 18.1645C67.3863 18.7062 67.8029 19.1072 68.3134 19.3677C68.8342 19.6177 69.4696 19.7427 70.2196 19.7427C71.0529 19.7427 71.7561 19.6124 72.329 19.352C72.9019 19.0812 73.3446 18.6749 73.6571 18.1333C73.9696 17.5812 74.1363 16.8781 74.1571 16.0239Z" fill="#2C4776"/>
<path d="M91.402 7.20346L86.3134 23.727H80.4227L88.7821 0.977028H91.5165L91.402 7.20346ZM96.454 23.727L91.402 7.20346L91.5165 0.977028H91.5634H93.954L102.36 23.727H96.454ZM93.8594 15.2422L95.1523 19.4766L87.6211 19.4648L88.9297 15.2383L93.8594 15.2422Z" fill="#2C4776"/>
<path d="M104.466 1.05515H113.419C115.169 1.05515 116.69 1.31557 117.981 1.8364C119.273 2.35724 120.268 3.12807 120.966 4.1489C121.674 5.16974 122.028 6.43015 122.028 7.93015C122.028 9.23224 121.825 10.3208 121.419 11.1958C121.013 12.0708 120.445 12.7947 119.716 13.3677C118.997 13.9302 118.027 14.5078 117.059 14.7812L115.012 15.2734L112.91 15.7656H109.945L109.949 11.5391L113.419 11.5395C114.117 11.5395 114.695 11.4145 115.153 11.1645C115.612 10.9145 115.955 10.5604 116.184 10.102C116.424 9.63328 116.544 9.07599 116.544 8.43015C116.544 7.7739 116.424 7.2114 116.184 6.74265C115.945 6.2739 115.591 5.91453 115.122 5.66453C114.664 5.41453 114.096 5.28953 113.419 5.28953H109.95V23.8052H104.466V1.05515ZM116.919 23.8052L112.91 15.7656L116.242 14.9805L117.059 14.7812L117.582 14.6094L118.008 14.418L122.794 23.5708V23.8052H116.919Z" fill="#2C4776"/>
<path d="M143.516 11.5708V20.9145C143.131 21.3416 142.537 21.7999 141.735 22.2895C140.944 22.7687 139.944 23.1802 138.735 23.5239C137.527 23.8677 136.105 24.0395 134.47 24.0395C132.959 24.0395 131.589 23.7999 130.36 23.3208C129.131 22.8312 128.074 22.1177 127.188 21.1802C126.313 20.2322 125.636 19.076 125.157 17.7114C124.688 16.3364 124.454 14.7635 124.454 12.9927V11.727C124.454 9.95619 124.694 8.38328 125.173 7.00828C125.652 5.63328 126.324 4.47703 127.188 3.53953C128.063 2.59161 129.089 1.87286 130.266 1.38328C131.454 0.893695 132.756 0.648903 134.173 0.648903C136.266 0.648903 137.97 0.982236 139.282 1.6489C140.595 2.30515 141.589 3.21661 142.266 4.38328C142.944 5.53953 143.355 6.87807 143.501 8.3989H138.235C138.131 7.6489 137.933 7.01349 137.641 6.49265C137.36 5.9614 136.954 5.56036 136.423 5.28953C135.891 5.00828 135.204 4.86765 134.36 4.86765C133.704 4.86765 133.105 5.00828 132.563 5.28953C132.032 5.57078 131.579 5.99786 131.204 6.57078C130.829 7.13328 130.537 7.84161 130.329 8.69578C130.131 9.54994 130.032 10.5499 130.032 11.6958V12.9927C130.032 14.1281 130.126 15.1229 130.313 15.977C130.511 16.8312 130.803 17.5447 131.188 18.1177C131.584 18.6802 132.084 19.1072 132.688 19.3989C133.303 19.6802 134.027 19.8208 134.86 19.8208C135.444 19.8208 135.944 19.7739 136.36 19.6802C136.777 19.576 137.121 19.451 137.391 19.3052C137.673 19.1489 137.886 19.0031 138.032 18.8677V15.3364H134.22V11.5708H143.516Z" fill="#2C4776"/>
<path d="M165.97 11.8989V12.8208C165.97 14.5604 165.725 16.1229 165.235 17.5083C164.756 18.8833 164.074 20.0604 163.188 21.0395C162.303 22.0083 161.256 22.7531 160.048 23.2739C158.839 23.7843 157.506 24.0395 156.048 24.0395C154.579 24.0395 153.235 23.7843 152.016 23.2739C150.808 22.7531 149.756 22.0083 148.86 21.0395C147.975 20.0604 147.287 18.8833 146.798 17.5083C146.319 16.1229 146.079 14.5604 146.079 12.8208V11.8989C146.079 10.1593 146.319 8.59682 146.798 7.2114C147.287 5.82599 147.97 4.6489 148.845 3.68015C149.73 2.70099 150.777 1.95619 151.985 1.44578C153.204 0.924945 154.548 0.664528 156.016 0.664528C157.475 0.664528 158.808 0.924945 160.016 1.44578C161.235 1.95619 162.287 2.70099 163.173 3.68015C164.058 4.6489 164.746 5.82599 165.235 7.2114C165.725 8.59682 165.97 10.1593 165.97 11.8989ZM160.407 12.8208V11.8677C160.407 10.7427 160.308 9.75307 160.11 8.8989C159.923 8.03432 159.641 7.31036 159.266 6.72703C158.891 6.14369 158.428 5.70619 157.876 5.41453C157.334 5.11244 156.714 4.9614 156.016 4.9614C155.287 4.9614 154.652 5.11244 154.11 5.41453C153.569 5.70619 153.115 6.14369 152.751 6.72703C152.386 7.31036 152.11 8.03432 151.923 8.8989C151.746 9.75307 151.657 10.7427 151.657 11.8677V12.8208C151.657 13.9354 151.746 14.9249 151.923 15.7895C152.11 16.6437 152.386 17.3677 152.751 17.9614C153.126 18.5552 153.584 19.0031 154.126 19.3052C154.678 19.6072 155.319 19.7583 156.048 19.7583C156.746 19.7583 157.365 19.6072 157.907 19.3052C158.449 19.0031 158.902 18.5552 159.266 17.9614C159.641 17.3677 159.923 16.6437 160.11 15.7895C160.308 14.9249 160.407 13.9354 160.407 12.8208Z" fill="#2C4776"/>
</svg>